<svg width="114" height="111" viewBox="0 0 114 111" fill="none" xmlns="http://www.w3.org/2000/svg">
<g clip-path="url(#clip0_935_149)">
<path d="M76 92.1094H95C100.039 92.1094 104.872 90.1753 108.435 86.7326C111.998 83.2899 114 78.6206 114 73.7519V55.3944C114 52.96 112.999 50.6254 111.218 48.904C109.436 47.1827 107.02 46.2157 104.5 46.2157H76.4275C77.5545 39.8064 80.99 33.9883 86.1269 29.7894C91.2637 25.5904 97.7714 23.2809 104.5 23.2688C105.76 23.2688 106.968 22.7853 107.859 21.9246C108.75 21.0639 109.25 19.8966 109.25 18.6794C109.25 17.4622 108.75 16.2949 107.859 15.4342C106.968 14.5736 105.76 14.09 104.5 14.09C94.4252 14.101 84.7664 17.9727 77.6424 24.8557C70.5185 31.7387 66.5113 41.071 66.5 50.805V82.9306C66.5 85.365 67.5009 87.6996 69.2825 89.421C71.0641 91.1423 73.4804 92.1094 76 92.1094Z" fill="url(#paint0_linear_935_149)"/>
<path d="M9.50002 92.1094H28.5C33.5391 92.1094 38.3718 90.1753 41.935 86.7326C45.4982 83.2899 47.5 78.6206 47.5 73.7519V55.3944C47.5 52.96 46.4991 50.6254 44.7175 48.904C42.9359 47.1827 40.5196 46.2157 38 46.2157H9.92752C11.0545 39.8064 14.49 33.9883 19.6269 29.7894C24.7637 25.5904 31.2714 23.2809 38 23.2688C39.2598 23.2688 40.468 22.7853 41.3588 21.9246C42.2496 21.0639 42.75 19.8966 42.75 18.6794C42.75 17.4622 42.2496 16.2949 41.3588 15.4342C40.468 14.5736 39.2598 14.09 38 14.09C27.9253 14.101 18.2664 17.9727 11.1425 24.8557C4.01853 31.7387 0.0113335 41.071 1.52588e-05 50.805V82.9306C1.52588e-05 85.365 1.00091 87.6996 2.78251 89.421C4.5641 91.1423 6.98046 92.1094 9.50002 92.1094Z" fill="url(#paint1_linear_935_149)"/>
</g>
<defs>
<linearGradient id="paint0_linear_935_149" x1="66.5" y1="92.1094" x2="131.832" y2="32.9163" gradientUnits="userSpaceOnUse">
<stop stop-color="#52658C"/>
<stop offset="1" stop-color="#367076"/>
</linearGradient>
<linearGradient id="paint1_linear_935_149" x1="1.23965e-05" y1="92.1094" x2="65.3323" y2="32.9163" gradientUnits="userSpaceOnUse">
<stop stop-color="#52658C"/>
<stop offset="1" stop-color="#367076"/>
</linearGradient>
<clipPath id="clip0_935_149">
<rect width="114" height="110.145" fill="white" transform="matrix(-1 0 0 -1 114 110.467)"/>
</clipPath>
</defs>
</svg>
